<svg data-v-423bf9ae="" xmlns="http://www.w3.org/2000/svg" viewBox="0 0 405 90" class="iconLeftSlogan"><!----><!----><!----><g data-v-423bf9ae="" id="df1cc346-5411-4776-97c2-d60656216422" fill="#000000" transform="matrix(4.5834422164971995,0,0,4.5834422164971995,105.08457984922902,-0.04583513042034326)"><path d="M7.29 2.34C7.29 0.84 7.35 0.70 8.01 0.57L8.01 0.43L5.77 0.43L5.77 0.57C6.16 0.70 6.20 0.84 6.20 2.34L6.20 5.45L2.13 5.45L2.13 2.34C2.13 0.84 2.18 0.70 2.58 0.57L2.58 0.43L0.31 0.43L0.31 0.57C0.98 0.70 1.05 0.99 1.05 2.34L1.05 8.39C1.05 9.81 1.05 9.94 0.31 10.14L0.31 10.29L2.58 10.29L2.58 10.14C2.18 10.00 2.13 9.95 2.13 8.39L2.13 5.67L6.20 5.67L6.20 8.39C6.20 9.69 6.15 10.00 5.77 10.14L5.77 10.29L8.01 10.29L8.01 10.14C7.28 9.94 7.29 9.53 7.29 8.39L7.29 2.34ZM12.45 6.78C12.45 6.78 12.45 8.95 12.45 8.95C12.29 9.28 11.93 9.90 11.06 9.90C10.23 9.90 9.86 9.31 9.86 8.71C9.86 7.80 10.70 7.20 12.45 6.78ZM14.06 9.86C13.44 9.86 13.45 9.02 13.45 9.02L13.45 6.50C13.45 4.83 13.08 3.70 11.70 3.70C11.70 3.70 11.03 3.67 10.44 3.96C9.70 4.37 9.44 4.80 9.35 5.00C9.27 5.18 9.30 5.42 9.44 5.60C9.63 5.87 10.00 5.89 10.23 5.70C10.49 5.49 10.54 5.12 10.33 4.87C10.23 4.75 10.09 4.69 9.95 4.66C9.87 4.65 9.97 4.35 10.57 4.07C11.76 3.54 12.45 4.40 12.45 5.84L12.45 6.62C10.08 7.24 8.89 7.63 8.89 8.96C8.89 10.42 10.47 10.42 10.47 10.42C11.45 10.42 12.25 9.91 12.45 9.21C12.49 10.46 13.52 10.42 13.52 10.42C14.18 10.42 14.56 9.90 14.64 9.48L14.50 9.42C14.41 9.86 14.06 9.86 14.06 9.86ZM21.31 10.15C20.80 10.02 20.73 9.97 20.73 9.20L20.73 5.98C20.73 4.30 19.87 3.70 18.72 3.70C17.84 3.70 16.93 4.35 16.65 5.14L16.65 3.70L14.98 4.02L14.98 4.16C15.57 4.24 15.68 4.44 15.68 4.93L15.68 9.20C15.68 9.91 15.65 9.98 15.12 10.14L15.12 10.29L17.22 10.29L17.22 10.14C16.72 10.01 16.65 9.97 16.65 9.20L16.65 5.46C16.81 4.98 17.39 4.23 18.19 4.23C19.22 4.23 19.78 4.94 19.78 6.03L19.78 9.20C19.78 9.91 19.75 10.00 19.22 10.15L19.22 10.29L21.31 10.29L21.31 10.15ZM25.77 6.78C25.77 6.78 25.77 8.95 25.77 8.95C25.62 9.28 25.26 9.90 24.39 9.90C23.56 9.90 23.18 9.31 23.18 8.71C23.18 7.80 24.02 7.20 25.77 6.78ZM27.38 9.86C26.77 9.86 26.78 9.02 26.78 9.02L26.78 6.50C26.78 4.83 26.40 3.70 25.03 3.70C25.03 3.70 24.36 3.67 23.77 3.96C23.03 4.37 22.76 4.80 22.68 5.00C22.60 5.18 22.62 5.42 22.76 5.60C22.96 5.87 23.32 5.89 23.56 5.70C23.81 5.49 23.87 5.12 23.66 4.87C23.56 4.75 23.42 4.69 23.28 4.66C23.20 4.65 23.30 4.35 23.90 4.07C25.09 3.54 25.77 4.40 25.77 5.84L25.77 6.62C23.41 7.24 22.22 7.63 22.22 8.96C22.22 10.42 23.80 10.42 23.80 10.42C24.78 10.42 25.58 9.91 25.77 9.21C25.82 10.46 26.85 10.42 26.85 10.42C27.51 10.42 27.89 9.90 27.97 9.48L27.83 9.42C27.73 9.86 27.38 9.86 27.38 9.86ZM32.30 6.78C32.30 6.78 32.30 8.95 32.30 8.95C32.14 9.28 31.78 9.90 30.91 9.90C30.09 9.90 29.71 9.31 29.71 8.71C29.71 7.80 30.55 7.20 32.30 6.78ZM33.91 9.86C33.29 9.86 33.31 9.02 33.31 9.02L33.31 6.50C33.31 4.83 32.93 3.70 31.56 3.70C31.56 3.70 30.88 3.67 30.30 3.96C29.55 4.37 29.29 4.80 29.20 5.00C29.12 5.18 29.15 5.42 29.29 5.60C29.48 5.87 29.85 5.89 30.09 5.70C30.34 5.49 30.39 5.12 30.18 4.87C30.09 4.75 29.95 4.69 29.81 4.66C29.72 4.65 29.82 4.35 30.42 4.07C31.61 3.54 32.30 4.40 32.30 5.84L32.30 6.62C29.93 7.24 28.74 7.63 28.74 8.96C28.74 10.42 30.32 10.42 30.32 10.42C31.30 10.42 32.10 9.91 32.30 9.21C32.34 10.46 33.38 10.42 33.38 10.42C34.03 10.42 34.41 9.90 34.50 9.48L34.36 9.42C34.26 9.86 33.91 9.86 33.91 9.86ZM46.24 5.43C46.24 9.28 44.72 10.26 43.06 10.26C41.40 10.26 39.86 9.28 39.86 5.43C39.86 1.60 41.40 0.46 43.06 0.46C44.72 0.46 46.24 1.60 46.24 5.43ZM47.47 5.43C47.47 2.66 46.14 0.31 43.06 0.31C39.98 0.31 38.65 2.66 38.65 5.43C38.65 8.22 39.98 10.42 43.06 10.42C46.14 10.42 47.47 8.22 47.47 5.43ZM43.53 11.47C43.53 11.47 41.23 10.50 39.42 11.98L39.56 12.11C39.90 11.89 40.94 11.44 41.75 11.76L42.77 12.21C45.00 13.20 45.71 13.41 46.77 12.61L47.61 11.96L47.50 11.84C47.12 12.12 46.54 12.52 45.50 12.18ZM55.03 10.04C54.45 9.97 54.32 9.86 54.32 9.18L54.32 3.70L52.70 3.95L52.70 4.10C53.37 4.12 53.35 4.17 53.35 5.03L53.35 8.72C53.14 9.32 52.64 9.88 51.80 9.88C50.99 9.88 50.22 9.46 50.22 8.27L50.22 3.70L48.50 3.95L48.50 4.10C49.28 4.10 49.28 4.16 49.28 5.10L49.28 8.32C49.28 10.09 50.43 10.42 51.39 10.42C52.36 10.42 53.16 9.77 53.35 9.06L53.35 10.22C53.35 10.22 53.35 10.47 53.68 10.40L55.03 10.18L55.03 10.04ZM56.71 2.51C57.04 2.51 57.32 2.24 57.32 1.92C57.32 1.58 57.04 1.32 56.71 1.32C56.38 1.32 56.13 1.58 56.13 1.92C56.13 2.24 56.38 2.51 56.71 2.51ZM57.90 10.14C57.40 10.01 57.33 9.97 57.33 9.20L57.33 3.70L55.68 4.02L55.68 4.16C56.27 4.24 56.38 4.44 56.38 4.91L56.38 9.20C56.38 9.91 56.35 9.98 55.82 10.14L55.82 10.29L57.90 10.29ZM61.00 10.14C60.49 10.01 60.42 9.97 60.42 9.20L60.42 0.01L58.76 0.32L58.76 0.48C59.35 0.53 59.46 0.73 59.46 1.22L59.46 9.20C59.46 9.91 59.43 9.98 58.90 10.14L58.90 10.29L61.00 10.29L61.00 10.14ZM65.25 9.24C65.14 9.58 64.81 9.88 64.40 9.88C63.76 9.88 63.32 9.51 63.32 8.23L63.32 3.98L64.95 3.98L64.97 3.82L63.32 3.82L63.32 1.64L62.36 1.76L62.36 3.82L61.63 3.82L61.66 3.98L62.36 3.98L62.36 8.27C62.36 9.97 62.97 10.42 63.94 10.42C64.68 10.42 65.21 9.88 65.37 9.30L65.25 9.24Z"></path></g><defs data-v-423bf9ae=""><linearGradient data-v-423bf9ae="" gradientTransform="rotate(25)" id="42f2174a-032a-4eeb-ba13-4a5e24456c3f" x1="0%" y1="0%" x2="100%" y2="0%"><stop data-v-423bf9ae="" offset="0%" style="stop-color: rgb(234, 31, 89); stop-opacity: 1;"></stop><stop data-v-423bf9ae="" offset="100%" style="stop-color: rgb(250, 145, 105); stop-opacity: 1;"></stop></linearGradient></defs><g data-v-423bf9ae="" id="b8eb330e-061a-4388-982e-8a1371958390" transform="matrix(1.010100940907218,0,0,1.010100940907218,-7.327978210373658,-5.0585853965739105)" stroke="none" fill="url(#42f2174a-032a-4eeb-ba13-4a5e24456c3f)"><path d="M12 94.9c-1.2 0-2.3-.5-3.2-1.3C7 91.9 7 89 8.8 87.2l32.7-32.7c.1-.1.2-.2.3-.2 8-4.7 13.1-9.7 16.8-16.8.1-.1.2-.3.3-.4l20.7-20.7c.2-.2.3-.5.3-.7 0-.1 0-.4-.3-.7-.2-.2-.5-.3-.6-.3-.3 0-.6.1-.8.3-.6.6-1.5.6-2.1 0-.6-.6-.6-1.5 0-2.1 4.4-4.4 9.2-7.1 12.6-7.1 1.6 0 2.6.6 3.2 1.2 1.5 1.5 1.6 4.1.2 7.2-1.2 2.7-3.3 5.8-6.1 8.5L15.2 93.6c-.9.9-2 1.3-3.2 1.3zm31.5-38.1L10.9 89.4c-.6.6-.6 1.5 0 2.1.6.6 1.6.6 2.1 0l70.8-70.8c2.5-2.5 4.4-5.2 5.5-7.6.9-2.1.9-3.5.4-3.9-.2-.2-.7-.3-1-.3-1.6 0-4.3 1.1-7.5 3.5.2.1.4.3.5.4.8.8 1.2 1.8 1.1 2.8 0 1.1-.5 2.1-1.2 2.8L61.2 39.1c-4 7.5-9.4 12.8-17.7 17.7z"></path></g><!----><g data-v-423bf9ae="" id="acb2e684-4ef0-4b69-80d7-95f58f353378" fill="#000000" transform="matrix(1.0825384955979842,0,0,1.0825384955979842,105.74767423790443,55.8971802924935)"><path d="M1.89 3.92L0.70 3.92L0.70 4.19C0.70 4.34 0.80 4.42 0.98 4.44L1.12 4.44C1.19 4.44 1.29 4.45 1.43 4.45C1.57 4.45 1.72 4.47 1.89 4.47L1.89 13.26C1.72 13.26 1.57 13.27 1.43 13.27C1.29 13.27 1.19 13.29 1.12 13.29L0.98 13.29C0.80 13.30 0.71 13.38 0.71 13.54L0.71 13.82L1.89 13.82L7.83 13.82L7.83 13.22L7.83 11.76L7.48 11.76C7.28 11.76 7.20 11.89 7.18 12.11C7.18 12.14 7.17 12.19 7.17 12.29C7.17 12.39 7.17 12.53 7.15 12.74C7.14 12.95 7.13 13.09 7.13 13.22L2.60 13.22L2.60 9.09L6.55 9.09L6.55 8.51L2.60 8.51L2.60 4.51L7.13 4.51C7.15 5.12 7.18 5.50 7.18 5.63C7.20 5.85 7.28 5.96 7.48 5.96L7.83 5.96L7.83 4.51L7.83 3.92ZM25.24 3.92L24.61 3.92L23.39 3.92L23.39 4.19C23.39 4.34 23.49 4.42 23.67 4.44L23.81 4.44C23.88 4.44 24.00 4.45 24.14 4.45C24.28 4.45 24.44 4.47 24.61 4.47L24.61 12.22C24.61 12.35 24.61 12.49 24.63 12.63L18.21 4.05C18.17 3.99 18.14 3.95 18.10 3.93C18.06 3.92 18.02 3.91 17.95 3.91L17.60 3.91L16.41 3.91L16.41 4.19C16.41 4.34 16.51 4.42 16.69 4.44L16.83 4.44C16.90 4.44 17.00 4.45 17.14 4.45C17.28 4.45 17.43 4.47 17.60 4.47L17.60 13.26C17.43 13.26 17.28 13.27 17.14 13.27C17.00 13.27 16.90 13.29 16.83 13.29L16.69 13.29C16.51 13.30 16.41 13.38 16.41 13.54L16.41 13.82L17.60 13.82L18.21 13.82L19.43 13.82L19.43 13.54C19.43 13.38 19.33 13.30 19.15 13.29L19.01 13.29C18.94 13.29 18.82 13.27 18.68 13.27C18.54 13.27 18.38 13.26 18.21 13.26L18.21 5.49C18.21 5.36 18.21 5.22 18.20 5.08L24.64 13.68C24.71 13.78 24.78 13.82 24.89 13.82L25.24 13.82L25.24 4.47C25.41 4.47 25.55 4.45 25.69 4.45C25.83 4.45 25.94 4.44 26.01 4.44L26.14 4.44C26.32 4.42 26.42 4.34 26.42 4.19L26.42 3.92ZM43.46 6.80C43.23 6.19 42.91 5.68 42.49 5.25C42.07 4.82 41.58 4.48 41.01 4.26C40.43 4.03 39.77 3.92 39.07 3.92L35.64 3.92L34.45 3.92L34.45 4.19C34.45 4.34 34.55 4.42 34.73 4.44L34.87 4.44C34.94 4.44 35.04 4.45 35.18 4.45C35.32 4.45 35.48 4.47 35.64 4.47L35.64 13.26C35.48 13.26 35.32 13.27 35.18 13.27C35.04 13.27 34.94 13.29 34.87 13.29L34.73 13.29C34.55 13.30 34.45 13.38 34.45 13.54L34.45 13.82L35.64 13.82L39.07 13.82C39.77 13.82 40.43 13.71 41.01 13.48C41.58 13.26 42.07 12.92 42.49 12.49C42.91 12.05 43.23 11.54 43.46 10.92C43.68 10.30 43.81 9.63 43.81 8.86C43.81 8.11 43.68 7.42 43.46 6.80ZM42.77 10.72C42.57 11.27 42.32 11.72 41.97 12.10C41.62 12.47 41.20 12.75 40.71 12.95C40.22 13.15 39.68 13.24 39.07 13.24L36.36 13.24L36.36 4.49L39.07 4.49C39.68 4.49 40.22 4.59 40.71 4.79C41.20 4.98 41.62 5.26 41.97 5.64C42.32 6.02 42.57 6.47 42.77 7.01C42.97 7.56 43.06 8.18 43.06 8.86C43.06 9.56 42.97 10.18 42.77 10.72ZM58.46 11.97C58.27 11.97 58.18 12.08 58.17 12.31C58.17 12.32 58.17 12.38 58.16 12.43C58.14 12.49 58.14 12.59 58.13 12.71C58.11 12.84 58.10 13.01 58.09 13.20L54.00 13.20L54.00 4.47C54.17 4.47 54.31 4.45 54.45 4.45C54.59 4.45 54.70 4.44 54.77 4.44L54.89 4.44C55.08 4.42 55.17 4.34 55.17 4.19L55.17 3.92L54.00 3.92L53.28 3.92L52.09 3.92L52.09 4.19C52.09 4.34 52.19 4.42 52.37 4.44L52.51 4.44C52.58 4.44 52.68 4.45 52.82 4.45C52.96 4.45 53.12 4.47 53.28 4.47L53.28 13.26C53.12 13.26 52.96 13.27 52.82 13.27C52.68 13.27 52.58 13.29 52.51 13.29L52.37 13.29C52.19 13.30 52.09 13.38 52.09 13.54L52.09 13.82L53.28 13.82L58.56 13.82L58.69 13.82L58.81 13.82L58.81 13.55L58.81 12.99L58.81 11.97L58.53 11.97ZM68.43 3.92L67.24 3.92L67.24 4.19C67.24 4.34 67.34 4.42 67.52 4.44L67.66 4.44C67.73 4.44 67.83 4.45 67.97 4.45C68.11 4.45 68.26 4.47 68.43 4.47L68.43 13.26C68.26 13.26 68.11 13.27 67.97 13.27C67.83 13.27 67.73 13.29 67.66 13.29L67.52 13.29C67.34 13.30 67.26 13.38 67.26 13.54L67.26 13.82L68.43 13.82L74.37 13.82L74.37 13.22L74.37 11.76L74.02 11.76C73.82 11.76 73.74 11.89 73.72 12.11C73.72 12.14 73.71 12.19 73.71 12.29C73.71 12.39 73.71 12.53 73.70 12.74C73.68 12.95 73.67 13.09 73.67 13.22L69.15 13.22L69.15 9.09L73.09 9.09L73.09 8.51L69.15 8.51L69.15 4.51L73.67 4.51C73.70 5.12 73.72 5.50 73.72 5.63C73.74 5.85 73.82 5.96 74.02 5.96L74.37 5.96L74.37 4.51L74.37 3.92ZM88.68 9.91C88.54 9.65 88.34 9.39 88.10 9.21C87.86 9.03 87.61 8.88 87.32 8.75C87.02 8.62 86.70 8.51 86.39 8.41C86.09 8.32 85.78 8.20 85.48 8.11C85.19 7.99 84.92 7.87 84.69 7.71C84.45 7.56 84.27 7.38 84.13 7.15C83.99 6.93 83.90 6.65 83.90 6.31C83.90 6.06 83.96 5.82 84.06 5.59C84.15 5.35 84.29 5.15 84.48 4.97C84.66 4.79 84.88 4.65 85.16 4.55C85.44 4.45 85.75 4.40 86.11 4.40C86.79 4.40 87.40 4.51 87.96 4.75C88.00 5.54 88.03 5.99 88.03 6.06C88.05 6.29 88.13 6.41 88.33 6.41L88.66 6.41L88.66 4.38C87.78 4.00 86.94 3.81 86.11 3.81C85.65 3.81 85.25 3.88 84.88 4.02C84.52 4.16 84.22 4.34 83.99 4.58C83.75 4.82 83.55 5.08 83.43 5.39C83.30 5.70 83.24 6.02 83.24 6.36C83.24 6.78 83.31 7.14 83.45 7.42C83.59 7.70 83.79 7.92 84.03 8.12C84.27 8.32 84.52 8.46 84.81 8.58C85.11 8.71 85.43 8.82 85.74 8.92C86.04 9.02 86.34 9.11 86.65 9.21C86.94 9.31 87.21 9.45 87.44 9.60C87.68 9.76 87.86 9.94 88.00 10.16C88.14 10.39 88.21 10.68 88.21 11.03C88.21 11.35 88.16 11.66 88.05 11.94C87.93 12.22 87.78 12.46 87.57 12.67C87.36 12.88 87.09 13.05 86.79 13.16C86.48 13.29 86.13 13.33 85.74 13.33C84.95 13.33 84.29 13.20 83.76 12.95C83.75 12.75 83.75 12.54 83.73 12.32C83.72 12.10 83.72 11.91 83.71 11.76C83.69 11.61 83.69 11.52 83.69 11.51C83.68 11.28 83.58 11.17 83.38 11.17L83.05 11.17L83.05 13.02L83.05 13.20L83.05 13.38C83.90 13.75 84.78 13.93 85.71 13.93C86.21 13.93 86.66 13.85 87.05 13.69C87.44 13.54 87.78 13.31 88.05 13.05C88.31 12.78 88.54 12.46 88.68 12.10C88.82 11.73 88.89 11.34 88.89 10.92C88.89 10.51 88.82 10.18 88.68 9.91ZM102.87 9.91C102.73 9.65 102.54 9.39 102.30 9.21C102.06 9.03 101.81 8.88 101.51 8.75C101.22 8.62 100.90 8.51 100.59 8.41C100.28 8.32 99.97 8.20 99.68 8.11C99.39 7.99 99.12 7.87 98.88 7.71C98.64 7.56 98.46 7.38 98.32 7.15C98.18 6.93 98.10 6.65 98.10 6.31C98.10 6.06 98.15 5.82 98.25 5.59C98.35 5.35 98.49 5.15 98.67 4.97C98.85 4.79 99.08 4.65 99.36 4.55C99.64 4.45 99.95 4.40 100.31 4.40C100.98 4.40 101.60 4.51 102.16 4.75C102.20 5.54 102.23 5.99 102.23 6.06C102.24 6.29 102.33 6.41 102.52 6.41L102.86 6.41L102.86 4.38C101.98 4.00 101.14 3.81 100.31 3.81C99.85 3.81 99.44 3.88 99.08 4.02C98.71 4.16 98.42 4.34 98.18 4.58C97.94 4.82 97.75 5.08 97.62 5.39C97.50 5.70 97.44 6.02 97.44 6.36C97.44 6.78 97.51 7.14 97.65 7.42C97.79 7.70 97.99 7.92 98.22 8.12C98.46 8.32 98.71 8.46 99.01 8.58C99.30 8.71 99.62 8.82 99.93 8.92C100.24 9.02 100.53 9.11 100.84 9.21C101.14 9.31 101.40 9.45 101.64 9.60C101.88 9.76 102.06 9.94 102.20 10.16C102.34 10.39 102.41 10.68 102.41 11.03C102.41 11.35 102.35 11.66 102.24 11.94C102.13 12.22 101.98 12.46 101.77 12.67C101.56 12.88 101.29 13.05 100.98 13.16C100.67 13.29 100.32 13.33 99.93 13.33C99.15 13.33 98.49 13.20 97.96 12.95C97.94 12.75 97.94 12.54 97.93 12.32C97.92 12.10 97.92 11.91 97.90 11.76C97.89 11.61 97.89 11.52 97.89 11.51C97.87 11.28 97.78 11.17 97.58 11.17L97.24 11.17L97.24 13.02L97.24 13.20L97.24 13.38C98.10 13.75 98.98 13.93 99.90 13.93C100.41 13.93 100.86 13.85 101.25 13.69C101.64 13.54 101.98 13.31 102.24 13.05C102.51 12.78 102.73 12.46 102.87 12.10C103.01 11.73 103.08 11.34 103.08 10.92C103.08 10.51 103.01 10.18 102.87 9.91ZM127.95 4.68C127.36 4.17 126.48 3.92 125.31 3.92L122.91 3.92L121.72 3.92L121.72 4.19C121.72 4.34 121.81 4.42 122.00 4.44L122.14 4.44C122.21 4.44 122.30 4.45 122.44 4.45C122.58 4.45 122.74 4.47 122.91 4.47L122.91 13.26C122.74 13.26 122.58 13.27 122.44 13.27C122.30 13.27 122.21 13.29 122.14 13.29L122.00 13.29C121.81 13.30 121.72 13.38 121.72 13.54L121.72 13.82L122.91 13.82L123.62 13.82L124.80 13.82L124.80 13.54C124.80 13.38 124.70 13.30 124.52 13.29L124.39 13.29C124.32 13.29 124.21 13.27 124.07 13.27C123.93 13.27 123.79 13.26 123.62 13.26L123.62 9.83L125.31 9.83C125.86 9.83 126.35 9.74 126.78 9.60C127.22 9.45 127.58 9.25 127.89 8.99C128.20 8.72 128.44 8.41 128.59 8.05C128.76 7.69 128.83 7.29 128.83 6.86C128.83 5.92 128.53 5.18 127.95 4.68ZM127.92 7.81C127.79 8.11 127.61 8.36 127.37 8.57C127.13 8.78 126.84 8.95 126.49 9.07C126.14 9.20 125.75 9.25 125.31 9.25L123.62 9.25L123.62 4.48L125.31 4.48C126.24 4.48 126.94 4.69 127.41 5.10C127.88 5.50 128.11 6.09 128.11 6.85C128.11 7.20 128.04 7.52 127.92 7.81ZM145.49 13.22L145.03 13.17L141.25 3.91L140.53 3.91L136.74 13.17L136.29 13.22C136.11 13.23 136.02 13.33 136.02 13.50L136.02 13.82L136.47 13.82L136.77 13.82L137.02 13.82L137.12 13.82L138.43 13.82L138.43 13.50C138.43 13.31 138.32 13.23 138.11 13.22C138.10 13.22 138.07 13.20 138.03 13.20C137.98 13.20 137.93 13.19 137.83 13.19C137.73 13.19 137.61 13.19 137.47 13.17L138.45 10.75L138.52 10.57L143.25 10.57L143.32 10.75L144.30 13.17C144.16 13.19 144.05 13.19 143.95 13.19C143.85 13.19 143.78 13.20 143.74 13.20C143.70 13.20 143.67 13.22 143.65 13.22C143.44 13.23 143.33 13.31 143.33 13.50L143.33 13.82L144.65 13.82L144.75 13.82L145.01 13.82L145.29 13.82L145.75 13.82L145.75 13.50C145.75 13.33 145.67 13.23 145.49 13.22ZM140.69 5.22C140.71 5.14 140.76 5.04 140.78 4.94C140.81 4.84 140.85 4.75 140.88 4.63C140.91 4.75 140.95 4.84 140.98 4.94C141.01 5.04 141.05 5.12 141.08 5.21L143.04 10.04L138.74 10.04ZM159.71 9.91C159.57 9.65 159.38 9.39 159.14 9.21C158.90 9.03 158.65 8.88 158.35 8.75C158.06 8.62 157.74 8.51 157.43 8.41C157.12 8.32 156.81 8.20 156.52 8.11C156.23 7.99 155.96 7.87 155.72 7.71C155.48 7.56 155.30 7.38 155.16 7.15C155.02 6.93 154.94 6.65 154.94 6.31C154.94 6.06 154.99 5.82 155.09 5.59C155.19 5.35 155.33 5.15 155.51 4.97C155.69 4.79 155.92 4.65 156.20 4.55C156.48 4.45 156.79 4.40 157.15 4.40C157.82 4.40 158.44 4.51 159.00 4.75C159.04 5.54 159.07 5.99 159.07 6.06C159.08 6.29 159.17 6.41 159.36 6.41L159.70 6.41L159.70 4.38C158.82 4.00 157.98 3.81 157.15 3.81C156.69 3.81 156.28 3.88 155.92 4.02C155.55 4.16 155.26 4.34 155.02 4.58C154.78 4.82 154.59 5.08 154.46 5.39C154.34 5.70 154.28 6.02 154.28 6.36C154.28 6.78 154.35 7.14 154.49 7.42C154.63 7.70 154.83 7.92 155.06 8.12C155.30 8.32 155.55 8.46 155.85 8.58C156.14 8.71 156.46 8.82 156.77 8.92C157.08 9.02 157.37 9.11 157.68 9.21C157.98 9.31 158.24 9.45 158.48 9.60C158.72 9.76 158.90 9.94 159.04 10.16C159.18 10.39 159.25 10.68 159.25 11.03C159.25 11.35 159.19 11.66 159.08 11.94C158.97 12.22 158.82 12.46 158.61 12.67C158.40 12.88 158.13 13.05 157.82 13.16C157.51 13.29 157.16 13.33 156.77 13.33C155.99 13.33 155.33 13.20 154.80 12.95C154.78 12.75 154.78 12.54 154.77 12.32C154.76 12.10 154.76 11.91 154.74 11.76C154.73 11.61 154.73 11.52 154.73 11.51C154.71 11.28 154.62 11.17 154.42 11.17L154.08 11.17L154.08 13.02L154.08 13.20L154.08 13.38C154.94 13.75 155.82 13.93 156.74 13.93C157.25 13.93 157.70 13.85 158.09 13.69C158.48 13.54 158.82 13.31 159.08 13.05C159.35 12.78 159.57 12.46 159.71 12.10C159.85 11.73 159.92 11.34 159.92 10.92C159.92 10.51 159.85 10.18 159.71 9.91ZM173.91 9.91C173.77 9.65 173.57 9.39 173.33 9.21C173.10 9.03 172.84 8.88 172.55 8.75C172.26 8.62 171.93 8.51 171.63 8.41C171.32 8.32 171.01 8.20 170.72 8.11C170.42 7.99 170.16 7.87 169.92 7.71C169.68 7.56 169.50 7.38 169.36 7.15C169.22 6.93 169.13 6.65 169.13 6.31C169.13 6.06 169.19 5.82 169.29 5.59C169.39 5.35 169.53 5.15 169.71 4.97C169.89 4.79 170.11 4.65 170.39 4.55C170.67 4.45 170.98 4.40 171.35 4.40C172.02 4.40 172.63 4.51 173.19 4.75C173.24 5.54 173.26 5.99 173.26 6.06C173.28 6.29 173.36 6.41 173.56 6.41L173.89 6.41L173.89 4.38C173.01 4.00 172.17 3.81 171.35 3.81C170.88 3.81 170.48 3.88 170.11 4.02C169.75 4.16 169.46 4.34 169.22 4.58C168.98 4.82 168.78 5.08 168.66 5.39C168.53 5.70 168.48 6.02 168.48 6.36C168.48 6.78 168.55 7.14 168.69 7.42C168.83 7.70 169.02 7.92 169.26 8.12C169.50 8.32 169.75 8.46 170.04 8.58C170.34 8.71 170.66 8.82 170.97 8.92C171.28 9.02 171.57 9.11 171.88 9.21C172.17 9.31 172.44 9.45 172.68 9.60C172.91 9.76 173.10 9.94 173.24 10.16C173.38 10.39 173.45 10.68 173.45 11.03C173.45 11.35 173.39 11.66 173.28 11.94C173.17 12.22 173.01 12.46 172.80 12.67C172.59 12.88 172.33 13.05 172.02 13.16C171.71 13.29 171.36 13.33 170.97 13.33C170.18 13.33 169.53 13.20 168.99 12.95C168.98 12.75 168.98 12.54 168.97 12.32C168.95 12.10 168.95 11.91 168.94 11.76C168.92 11.61 168.92 11.52 168.92 11.51C168.91 11.28 168.81 11.17 168.62 11.17L168.28 11.17L168.28 13.02L168.28 13.20L168.28 13.38C169.13 13.75 170.02 13.93 170.94 13.93C171.44 13.93 171.89 13.85 172.28 13.69C172.68 13.54 173.01 13.31 173.28 13.05C173.54 12.78 173.77 12.46 173.91 12.10C174.05 11.73 174.12 11.34 174.12 10.92C174.12 10.51 174.05 10.18 173.91 9.91ZM185.19 4.44C185.37 4.42 185.46 4.34 185.46 4.19L185.46 3.91L184.28 3.91L183.57 3.91L182.38 3.91L182.38 4.19C182.38 4.34 182.48 4.42 182.66 4.44L182.80 4.44C182.87 4.44 182.97 4.45 183.11 4.45C183.25 4.45 183.40 4.47 183.57 4.47L183.57 13.26C183.40 13.26 183.25 13.27 183.11 13.27C182.97 13.27 182.87 13.29 182.80 13.29L182.66 13.29C182.48 13.30 182.38 13.38 182.38 13.54L182.38 13.82L183.57 13.82L184.28 13.82L185.46 13.82L185.46 13.54C185.46 13.38 185.37 13.30 185.19 13.29L185.05 13.29C184.98 13.29 184.88 13.27 184.74 13.27C184.60 13.27 184.45 13.26 184.28 13.26L184.28 4.47C184.45 4.47 184.60 4.45 184.74 4.45C184.88 4.45 184.98 4.44 185.05 4.44ZM203.07 8.86C203.07 8.11 202.94 7.41 202.72 6.79C202.50 6.17 202.17 5.64 201.75 5.19C201.33 4.75 200.84 4.40 200.27 4.16C199.70 3.92 199.04 3.79 198.34 3.79C197.64 3.79 197.01 3.92 196.43 4.16C195.86 4.40 195.36 4.75 194.94 5.19C194.52 5.64 194.19 6.17 193.97 6.79C193.75 7.41 193.62 8.11 193.62 8.86C193.62 9.63 193.75 10.33 193.97 10.95C194.19 11.56 194.52 12.10 194.94 12.54C195.36 12.99 195.86 13.33 196.43 13.57C197.01 13.80 197.64 13.93 198.34 13.93C199.04 13.93 199.70 13.80 200.27 13.57C200.84 13.33 201.33 12.99 201.75 12.54C202.17 12.10 202.50 11.56 202.72 10.95C202.94 10.33 203.07 9.63 203.07 8.86ZM202.31 8.86C202.31 9.56 202.23 10.18 202.03 10.72C201.84 11.27 201.57 11.75 201.22 12.12C200.87 12.50 200.45 12.81 199.96 13.01C199.47 13.20 198.94 13.30 198.34 13.30C197.75 13.30 197.22 13.20 196.73 13.01C196.24 12.81 195.82 12.50 195.47 12.12C195.12 11.75 194.84 11.27 194.64 10.72C194.45 10.18 194.36 9.56 194.36 8.86C194.36 8.18 194.45 7.55 194.64 7.00C194.84 6.45 195.12 5.98 195.47 5.60C195.82 5.22 196.24 4.91 196.73 4.72C197.22 4.52 197.75 4.41 198.34 4.41C198.94 4.41 199.47 4.52 199.96 4.72C200.45 4.91 200.87 5.22 201.22 5.60C201.57 5.98 201.84 6.45 202.03 7.00C202.23 7.55 202.31 8.18 202.31 8.86ZM219.90 3.92L219.27 3.92L218.05 3.92L218.05 4.19C218.05 4.34 218.15 4.42 218.33 4.44L218.47 4.44C218.54 4.44 218.65 4.45 218.79 4.45C218.93 4.45 219.10 4.47 219.27 4.47L219.27 12.22C219.27 12.35 219.27 12.49 219.28 12.63L212.87 4.05C212.83 3.99 212.80 3.95 212.76 3.93C212.72 3.92 212.67 3.91 212.60 3.91L212.25 3.91L211.06 3.91L211.06 4.19C211.06 4.34 211.16 4.42 211.34 4.44L211.48 4.44C211.55 4.44 211.65 4.45 211.79 4.45C211.93 4.45 212.09 4.47 212.25 4.47L212.25 13.26C212.09 13.26 211.93 13.27 211.79 13.27C211.65 13.27 211.55 13.29 211.48 13.29L211.34 13.29C211.16 13.30 211.06 13.38 211.06 13.54L211.06 13.82L212.25 13.82L212.87 13.82L214.09 13.82L214.09 13.54C214.09 13.38 213.99 13.30 213.81 13.29L213.67 13.29C213.60 13.29 213.47 13.27 213.33 13.27C213.19 13.27 213.04 13.26 212.87 13.26L212.87 5.49C212.87 5.36 212.87 5.22 212.86 5.08L219.30 13.68C219.37 13.78 219.44 13.82 219.55 13.82L219.90 13.82L219.90 4.47C220.07 4.47 220.21 4.45 220.35 4.45C220.49 4.45 220.60 4.44 220.67 4.44L220.79 4.44C220.98 4.42 221.07 4.34 221.07 4.19L221.07 3.92Z"></path></g></svg>