<svg data-v-fde0c5aa="" xmlns="http://www.w3.org/2000/svg" viewBox="0 0 300 300" class="font"><!----><defs data-v-fde0c5aa=""><!----></defs><rect data-v-fde0c5aa="" fill="transparent" x="0" y="0" width="300px" height="300px" class="logo-background-square"></rect><defs data-v-fde0c5aa=""><linearGradient data-v-fde0c5aa="" gradientTransform="rotate(25)" id="2ae5fbdd-12f9-48b4-a073-c4f5b27b2a0d" x1="0%" y1="0%" x2="100%" y2="0%"><stop data-v-fde0c5aa="" offset="0%" stop-color="#EA1F59" stop-opacity="1"></stop><stop data-v-fde0c5aa="" offset="100%" stop-color="#FA9169" stop-opacity="1"></stop></linearGradient></defs><g data-v-fde0c5aa="" id="297621aa-d78d-4460-972e-92e50df0d37f" fill="url(#2ae5fbdd-12f9-48b4-a073-c4f5b27b2a0d)" transform="matrix(3.381493735887644,0,0,3.381493735887644,38.95173693381272,127.83329731236714)"><path d="M7.29 2.34C7.29 0.84 7.35 0.70 8.01 0.57L8.01 0.43L5.77 0.43L5.77 0.57C6.16 0.70 6.20 0.84 6.20 2.34L6.20 5.45L2.13 5.45L2.13 2.34C2.13 0.84 2.18 0.70 2.58 0.57L2.58 0.43L0.31 0.43L0.31 0.57C0.98 0.70 1.05 0.99 1.05 2.34L1.05 8.39C1.05 9.81 1.05 9.94 0.31 10.14L0.31 10.29L2.58 10.29L2.58 10.14C2.18 10.00 2.13 9.95 2.13 8.39L2.13 5.67L6.20 5.67L6.20 8.39C6.20 9.69 6.15 10.00 5.77 10.14L5.77 10.29L8.01 10.29L8.01 10.14C7.28 9.94 7.29 9.53 7.29 8.39L7.29 2.34ZM12.45 6.78C12.45 6.78 12.45 8.95 12.45 8.95C12.29 9.28 11.93 9.90 11.06 9.90C10.23 9.90 9.86 9.31 9.86 8.71C9.86 7.80 10.70 7.20 12.45 6.78ZM14.06 9.86C13.44 9.86 13.45 9.02 13.45 9.02L13.45 6.50C13.45 4.83 13.08 3.70 11.70 3.70C11.70 3.70 11.03 3.67 10.44 3.96C9.70 4.37 9.44 4.80 9.35 5.00C9.27 5.18 9.30 5.42 9.44 5.60C9.63 5.87 10.00 5.89 10.23 5.70C10.49 5.49 10.54 5.12 10.33 4.87C10.23 4.75 10.09 4.69 9.95 4.66C9.87 4.65 9.97 4.35 10.57 4.07C11.76 3.54 12.45 4.40 12.45 5.84L12.45 6.62C10.08 7.24 8.89 7.63 8.89 8.96C8.89 10.42 10.47 10.42 10.47 10.42C11.45 10.42 12.25 9.91 12.45 9.21C12.49 10.46 13.52 10.42 13.52 10.42C14.18 10.42 14.56 9.90 14.64 9.48L14.50 9.42C14.41 9.86 14.06 9.86 14.06 9.86ZM21.31 10.15C20.80 10.02 20.73 9.97 20.73 9.20L20.73 5.98C20.73 4.30 19.87 3.70 18.72 3.70C17.84 3.70 16.93 4.35 16.65 5.14L16.65 3.70L14.98 4.02L14.98 4.16C15.57 4.24 15.68 4.44 15.68 4.93L15.68 9.20C15.68 9.91 15.65 9.98 15.12 10.14L15.12 10.29L17.22 10.29L17.22 10.14C16.72 10.01 16.65 9.97 16.65 9.20L16.65 5.46C16.81 4.98 17.39 4.23 18.19 4.23C19.22 4.23 19.78 4.94 19.78 6.03L19.78 9.20C19.78 9.91 19.75 10.00 19.22 10.15L19.22 10.29L21.31 10.29L21.31 10.15ZM25.77 6.78C25.77 6.78 25.77 8.95 25.77 8.95C25.62 9.28 25.26 9.90 24.39 9.90C23.56 9.90 23.18 9.31 23.18 8.71C23.18 7.80 24.02 7.20 25.77 6.78ZM27.38 9.86C26.77 9.86 26.78 9.02 26.78 9.02L26.78 6.50C26.78 4.83 26.40 3.70 25.03 3.70C25.03 3.70 24.36 3.67 23.77 3.96C23.03 4.37 22.76 4.80 22.68 5.00C22.60 5.18 22.62 5.42 22.76 5.60C22.96 5.87 23.32 5.89 23.56 5.70C23.81 5.49 23.87 5.12 23.66 4.87C23.56 4.75 23.42 4.69 23.28 4.66C23.20 4.65 23.30 4.35 23.90 4.07C25.09 3.54 25.77 4.40 25.77 5.84L25.77 6.62C23.41 7.24 22.22 7.63 22.22 8.96C22.22 10.42 23.80 10.42 23.80 10.42C24.78 10.42 25.58 9.91 25.77 9.21C25.82 10.46 26.85 10.42 26.85 10.42C27.51 10.42 27.89 9.90 27.97 9.48L27.83 9.42C27.73 9.86 27.38 9.86 27.38 9.86ZM32.30 6.78C32.30 6.78 32.30 8.95 32.30 8.95C32.14 9.28 31.78 9.90 30.91 9.90C30.09 9.90 29.71 9.31 29.71 8.71C29.71 7.80 30.55 7.20 32.30 6.78ZM33.91 9.86C33.29 9.86 33.31 9.02 33.31 9.02L33.31 6.50C33.31 4.83 32.93 3.70 31.56 3.70C31.56 3.70 30.88 3.67 30.30 3.96C29.55 4.37 29.29 4.80 29.20 5.00C29.12 5.18 29.15 5.42 29.29 5.60C29.48 5.87 29.85 5.89 30.09 5.70C30.34 5.49 30.39 5.12 30.18 4.87C30.09 4.75 29.95 4.69 29.81 4.66C29.72 4.65 29.82 4.35 30.42 4.07C31.61 3.54 32.30 4.40 32.30 5.84L32.30 6.62C29.93 7.24 28.74 7.63 28.74 8.96C28.74 10.42 30.32 10.42 30.32 10.42C31.30 10.42 32.10 9.91 32.30 9.21C32.34 10.46 33.38 10.42 33.38 10.42C34.03 10.42 34.41 9.90 34.50 9.48L34.36 9.42C34.26 9.86 33.91 9.86 33.91 9.86ZM46.24 5.43C46.24 9.28 44.72 10.26 43.06 10.26C41.40 10.26 39.86 9.28 39.86 5.43C39.86 1.60 41.40 0.46 43.06 0.46C44.72 0.46 46.24 1.60 46.24 5.43ZM47.47 5.43C47.47 2.66 46.14 0.31 43.06 0.31C39.98 0.31 38.65 2.66 38.65 5.43C38.65 8.22 39.98 10.42 43.06 10.42C46.14 10.42 47.47 8.22 47.47 5.43ZM43.53 11.47C43.53 11.47 41.23 10.50 39.42 11.98L39.56 12.11C39.90 11.89 40.94 11.44 41.75 11.76L42.77 12.21C45.00 13.20 45.71 13.41 46.77 12.61L47.61 11.96L47.50 11.84C47.12 12.12 46.54 12.52 45.50 12.18ZM55.03 10.04C54.45 9.97 54.32 9.86 54.32 9.18L54.32 3.70L52.70 3.95L52.70 4.10C53.37 4.12 53.35 4.17 53.35 5.03L53.35 8.72C53.14 9.32 52.64 9.88 51.80 9.88C50.99 9.88 50.22 9.46 50.22 8.27L50.22 3.70L48.50 3.95L48.50 4.10C49.28 4.10 49.28 4.16 49.28 5.10L49.28 8.32C49.28 10.09 50.43 10.42 51.39 10.42C52.36 10.42 53.16 9.77 53.35 9.06L53.35 10.22C53.35 10.22 53.35 10.47 53.68 10.40L55.03 10.18L55.03 10.04ZM56.71 2.51C57.04 2.51 57.32 2.24 57.32 1.92C57.32 1.58 57.04 1.32 56.71 1.32C56.38 1.32 56.13 1.58 56.13 1.92C56.13 2.24 56.38 2.51 56.71 2.51ZM57.90 10.14C57.40 10.01 57.33 9.97 57.33 9.20L57.33 3.70L55.68 4.02L55.68 4.16C56.27 4.24 56.38 4.44 56.38 4.91L56.38 9.20C56.38 9.91 56.35 9.98 55.82 10.14L55.82 10.29L57.90 10.29ZM61.00 10.14C60.49 10.01 60.42 9.97 60.42 9.20L60.42 0.01L58.76 0.32L58.76 0.48C59.35 0.53 59.46 0.73 59.46 1.22L59.46 9.20C59.46 9.91 59.43 9.98 58.90 10.14L58.90 10.29L61.00 10.29L61.00 10.14ZM65.25 9.24C65.14 9.58 64.81 9.88 64.40 9.88C63.76 9.88 63.32 9.51 63.32 8.23L63.32 3.98L64.95 3.98L64.97 3.82L63.32 3.82L63.32 1.64L62.36 1.76L62.36 3.82L61.63 3.82L61.66 3.98L62.36 3.98L62.36 8.27C62.36 9.97 62.97 10.42 63.94 10.42C64.68 10.42 65.21 9.88 65.37 9.30L65.25 9.24Z"></path></g><!----><!----></svg>